<?xml version="1.0" encoding="utf-8"?>
<!-- Generator: Adobe Illustrator 23.0.5, SVG Export Plug-In . SVG Version: 6.00 Build 0)  -->
<svg version="1.1" id="Layer_1" xmlns="http://www.w3.org/2000/svg" xmlns:xlink="http://www.w3.org/1999/xlink" x="0px" y="0px"
	 viewBox="0 0 327.9 104.6" style="enable-background:new 0 0 327.9 104.6;" xml:space="preserve">
<style type="text/css">
	.st0{fill:#1D1D1B;}
	.st1{fill:#D7361E;}
	.st2{fill:#244192;}
	.st3{fill:#FCCB14;}
</style>
<g>
	<path class="st0" d="M108.6,56.4c-2.3,0.1-4.1,0.7-5.5,2c-1.4,1.3-2.4,3-2.8,5.3c-0.5,2.2-0.7,6.2-0.8,12c0,5.8-0.2,10-0.6,12.5
		c-0.4,2.5-1.2,4.6-2.4,6.3c-1.2,1.7-2.8,2.9-4.7,3.6c-1.3,0.5-3.4,0.8-6.3,0.8h-2.5v-7.6h1.4c2.8,0,4.7-0.4,5.6-1.3
		c1-0.9,1.6-2.4,1.8-4.6C92,84.3,92,80.5,92,74.2c0-6.9,0.7-11.9,2.2-15c1.5-3,3.8-5.3,7-6.8c-2.7-1.4-4.7-3.1-6-5
		c-1.3-1.9-2.2-4.5-2.7-8c-0.3-2.2-0.5-7.6-0.5-16c0-4.2-0.5-6.9-1.5-8.1c-1-1.2-3-1.8-6.1-1.8h-1.4V6.1h2.5c2.5,0,4.4,0.2,5.5,0.5
		c1.6,0.5,3,1.3,4.1,2.2c1.1,1,1.9,2.3,2.7,3.9c0.7,1.6,1.2,3.8,1.5,6.5c0.1,1.7,0.2,5.3,0.3,10.6c0,5.4,0.3,9.2,0.8,11.4
		c0.5,2.2,1.4,4,2.8,5.2c1.4,1.3,3.3,1.9,5.5,2V56.4z"/>
</g>
<g>
	<path class="st0" d="M8.7,48.5c2.3-0.1,4.1-0.7,5.5-2c1.4-1.3,2.4-3,2.8-5.2c0.5-2.2,0.7-6,0.8-11.4c0-5.4,0.1-8.9,0.3-10.6
		c0.3-2.7,0.8-4.9,1.5-6.5c0.7-1.6,1.6-3,2.7-3.9c1.1-1,2.4-1.7,4.1-2.2c1.1-0.3,2.9-0.5,5.5-0.5h2.5v7.6h-1.4
		c-3.1,0-5.1,0.6-6.1,1.8c-1,1.2-1.5,3.9-1.5,8.1c0,8.4-0.2,13.8-0.5,16c-0.5,3.4-1.4,6.1-2.7,8c-1.3,1.9-3.3,3.5-6,5
		c3.2,1.5,5.6,3.7,7,6.8c1.5,3,2.2,8,2.2,15c0,6.3,0.1,10,0.2,11.2c0.2,2.2,0.8,3.7,1.8,4.6c1,0.9,2.8,1.3,5.6,1.3h1.4v7.6h-2.5
		c-2.9,0-5-0.3-6.3-0.8c-1.9-0.7-3.4-1.9-4.7-3.6c-1.2-1.7-2-3.8-2.4-6.3c-0.4-2.5-0.6-6.7-0.6-12.5c0-5.8-0.3-9.8-0.8-12
		c-0.5-2.2-1.4-4-2.8-5.3c-1.4-1.3-3.3-2-5.5-2V48.5z"/>
</g>
<path class="st1" d="M46,82.1c0-1.9,1.4-3.4,3.1-3.4H82c1.7,0,3.1,1.5,3.1,3.4l0,0c0,1.9-1.4,3.4-3.1,3.4H49.1
	C47.4,85.5,46,84,46,82.1L46,82.1z"/>
<path class="st1" d="M64.5,67.4c0-1.8,1.3-3.2,3-3.2h14.4c1.6,0,3,1.5,3,3.2l0,0c0,1.8-1.3,3.2-3,3.2H67.4
	C65.8,70.6,64.5,69.2,64.5,67.4L64.5,67.4z"/>
<path class="st2" d="M31.8,67.4c0-1.8,1.3-3.2,3-3.2h22.5c1.6,0,3,1.5,3,3.2l0,0c0,1.8-1.3,3.2-3,3.2H34.8
	C33.2,70.6,31.8,69.2,31.8,67.4L31.8,67.4z"/>
<path class="st2" d="M31.8,52.9c0-1.9,1.4-3.4,3.1-3.4h46.8c1.7,0,3.1,1.5,3.1,3.4l0,0c0,1.9-1.4,3.4-3.1,3.4H34.9
	C33.2,56.2,31.8,54.7,31.8,52.9L31.8,52.9z"/>
<path class="st3" d="M50.5,38.4c0-1.9,1.4-3.5,3.2-3.5h28.2c1.8,0,3.2,1.6,3.2,3.5l0,0c0,1.9-1.4,3.5-3.2,3.5H53.7
	C51.9,41.8,50.5,40.3,50.5,38.4L50.5,38.4z"/>
<path class="st3" d="M31.8,38.4c0-1.9,1.4-3.5,3.2-3.5h7.8c1.8,0,3.2,1.6,3.2,3.5l0,0c0,1.9-1.4,3.5-3.2,3.5H35
	C33.3,41.8,31.8,40.3,31.8,38.4L31.8,38.4z"/>
<path class="st3" d="M31.8,23.7c0-2,1.5-3.7,3.4-3.7h46.3c1.9,0,3.4,1.6,3.4,3.7l0,0c0,2-1.5,3.7-3.4,3.7H35.2
	C33.3,27.4,31.8,25.7,31.8,23.7L31.8,23.7z"/>
<path class="st0" d="M164.2,25.6v-0.2c0-1,0.3-1.7,0.8-2.1c0.5-0.5,1.4-0.7,2.5-0.7c1.2,0,2,0.3,2.4,1c0.4,0.7,0.7,2.1,0.7,4.3v8.1
	c0,1.1-0.3,1.9-0.8,2.4c-0.5,0.5-1.3,0.8-2.4,0.8c-0.8,0-1.4-0.2-2-0.7c-0.6-0.4-1.2-1.4-2-2.8c-1.4-2.4-3-4.1-4.9-5.3
	c-1.9-1.2-4.2-1.8-6.7-1.8c-4.4,0-8,1.3-10.7,4c-2.8,2.7-4.1,6.1-4.1,10.4c0,4.3,1.3,7.9,4,10.6c2.6,2.7,6,4.1,10.2,4.1
	c1.9,0,3.7-0.3,5.4-0.8c1.7-0.5,3.3-1.3,4.8-2.4c0.5-0.3,1.3-0.9,2.2-1.6c1.8-1.5,3.3-2.3,4.3-2.3c0.9,0,1.6,0.3,2.1,0.9
	c0.6,0.6,0.8,1.3,0.8,2.2c0,2.3-2.1,4.6-6.3,7c-4.2,2.4-8.7,3.6-13.4,3.6c-6.1,0-11.2-2-15.3-6.1c-4.1-4-6.1-9.1-6.1-15.1
	s2-11.1,6.1-15.1c4.1-4.1,9.1-6.1,15.2-6.1c2.1,0,4.3,0.3,6.5,0.9C159.5,23.4,161.8,24.3,164.2,25.6z"/>
<path class="st0" d="M222.3,43.1c0,6.2-2.1,11.3-6.2,15.2c-4.1,3.9-9.5,5.9-16,5.9c-6.5,0-11.9-2-16-5.9c-4.1-3.9-6.2-9-6.2-15.2
	c0-6.2,2.1-11.3,6.2-15.2c4.1-3.9,9.5-5.9,16-5.9c6.5,0,11.9,2,16,5.9C220.2,31.9,222.3,37,222.3,43.1z M200.1,58.2
	c4.3,0,7.9-1.4,10.7-4.2c2.8-2.8,4.2-6.4,4.2-10.8c0-4.4-1.4-8-4.2-10.9c-2.8-2.9-6.3-4.3-10.7-4.3c-4.3,0-7.9,1.4-10.6,4.3
	c-2.8,2.9-4.2,6.5-4.2,10.9c0,4.4,1.4,8,4.1,10.8C192.2,56.8,195.7,58.2,200.1,58.2z"/>
<path class="st0" d="M261.4,63.2c-0.6,0-1-0.2-1.2-0.5c-0.2-0.3-0.4-0.9-0.4-1.8v-3.6c-1.7,2.2-3.8,3.9-6.3,5.1
	c-2.5,1.2-5.3,1.8-8.3,1.8c-5.3,0-9.8-2-13.4-5.9c-3.6-3.9-5.4-8.8-5.4-14.6c0-6,1.9-11,5.8-15c3.8-4,8.6-6,14.3-6
	c2.9,0,5.5,0.5,7.8,1.6c2.3,1.1,4.3,2.6,6,4.7V12.5H258c-2.5,0-4-0.2-4.8-0.7c-0.7-0.4-1.1-1.3-1.1-2.5c0-1,0.3-1.8,0.9-2.4
	c0.6-0.5,1.4-0.8,2.5-0.8h8.7c0.8,0,1.5,0.1,1.8,0.4c0.4,0.3,0.6,0.7,0.6,1.4v49.1h1.9c1.4,0,2.4,0.2,3,0.7c0.6,0.5,0.9,1.2,0.9,2.3
	c0,1-0.3,1.8-0.8,2.3c-0.5,0.6-1.3,0.8-2.2,0.8H261.4z M233.6,43.7c0,4,1.3,7.3,3.8,9.8c2.5,2.6,5.7,3.8,9.6,3.8
	c3.9,0,7.1-1.3,9.6-4c2.5-2.7,3.8-6,3.8-10.1c0-4-1.2-7.4-3.7-10c-2.5-2.6-5.7-3.9-9.6-3.9c-4,0-7.2,1.3-9.7,4
	C234.9,35.9,233.6,39.4,233.6,43.7z"/>
<path class="st0" d="M282.9,45c0.2,4.2,1.6,7.4,4.1,9.7c2.5,2.3,6,3.4,10.3,3.4c3.3,0,6.9-0.9,10.8-2.7c3.9-1.8,6.2-2.7,7.1-2.7
	c0.8,0,1.6,0.3,2.1,0.8c0.6,0.6,0.8,1.2,0.8,2c0,0.8-0.3,1.6-0.9,2.3c-0.6,0.7-1.5,1.4-2.8,2c-2.8,1.4-5.7,2.5-8.7,3.2
	c-3,0.7-6,1.1-9,1.1c-6.4,0-11.6-1.9-15.5-5.7c-3.9-3.8-5.8-8.9-5.8-15.2c0-6.4,2-11.6,6.1-15.6c4.1-4,9.4-6,16-6
	c6,0,10.9,1.9,14.8,5.6c3.9,3.7,5.9,8.2,5.9,13.5c0,1.6-0.3,2.7-1,3.3c-0.7,0.6-2.5,0.8-5.4,0.8h-0.6H282.9z M283.1,39.3h27.6
	c-0.4-3.5-1.8-6.2-4.2-8.3c-2.4-2.1-5.3-3.2-8.8-3.2c-3.8,0-6.9,1-9.5,3C285.6,32.9,283.9,35.7,283.1,39.3z"/>
<path class="st0" d="M132.2,98.5V81h12.6v2.1h-10.3v5.3h9.7v2h-9.7v5.9h10.7v2.1H132.2z"/>
<path class="st0" d="M172.1,92.4l2.3,0.6c-0.5,1.9-1.4,3.3-2.6,4.3c-1.3,1-2.8,1.5-4.6,1.5c-1.9,0-3.4-0.4-4.6-1.1
	c-1.2-0.8-2.1-1.9-2.7-3.3c-0.6-1.5-0.9-3-0.9-4.7c0-1.8,0.3-3.4,1-4.8c0.7-1.4,1.7-2.4,3-3.1c1.3-0.7,2.7-1.1,4.2-1.1
	c1.7,0,3.2,0.4,4.4,1.3c1.2,0.9,2,2.1,2.5,3.8l-2.3,0.5c-0.4-1.3-1-2.2-1.8-2.8c-0.8-0.6-1.7-0.9-2.9-0.9c-1.3,0-2.5,0.3-3.4,1
	c-0.9,0.6-1.5,1.5-1.9,2.6c-0.4,1.1-0.5,2.2-0.5,3.4c0,1.5,0.2,2.8,0.6,3.9c0.4,1.1,1.1,1.9,2,2.5c0.9,0.5,1.9,0.8,3,0.8
	c1.3,0,2.4-0.4,3.3-1.1C171.2,95,171.8,93.8,172.1,92.4z"/>
<path class="st0" d="M200,81h2.3v10.1c0,1.8-0.2,3.1-0.6,4.2c-0.4,1-1.1,1.9-2.1,2.5c-1,0.6-2.4,1-4.1,1c-1.6,0-3-0.3-4-0.8
	c-1-0.6-1.8-1.4-2.2-2.4c-0.4-1.1-0.7-2.5-0.7-4.4V81h2.3v10.1c0,1.5,0.1,2.6,0.4,3.4c0.3,0.7,0.8,1.3,1.5,1.7s1.5,0.6,2.5,0.6
	c1.7,0,2.9-0.4,3.6-1.2c0.7-0.8,1.1-2.3,1.1-4.4V81z"/>
<path class="st0" d="M215.4,98.5l6.7-17.5h2.5l7.1,17.5h-2.6l-2-5.3h-7.3l-1.9,5.3H215.4z M220.5,91.3h5.9l-1.8-4.8
	c-0.6-1.5-1-2.7-1.2-3.6c-0.2,1.1-0.5,2.2-0.9,3.3L220.5,91.3z"/>
<path class="st0" d="M244.8,98.5V81h6c1.4,0,2.4,0.1,3.1,0.3c1,0.2,1.9,0.6,2.6,1.2c0.9,0.8,1.6,1.8,2.1,3c0.5,1.2,0.7,2.6,0.7,4.2
	c0,1.3-0.2,2.5-0.5,3.5c-0.3,1-0.7,1.9-1.2,2.5c-0.5,0.7-1,1.2-1.6,1.6c-0.6,0.4-1.3,0.7-2.1,0.9c-0.8,0.2-1.7,0.3-2.8,0.3H244.8z
	 M247.1,96.4h3.7c1.2,0,2.1-0.1,2.7-0.3c0.7-0.2,1.2-0.5,1.6-0.9c0.5-0.5,1-1.3,1.3-2.2c0.3-0.9,0.5-2,0.5-3.4
	c0-1.8-0.3-3.2-0.9-4.2c-0.6-1-1.3-1.6-2.2-2c-0.6-0.2-1.6-0.4-3-0.4h-3.7V96.4z"/>
<path class="st0" d="M273,90c0-2.9,0.8-5.2,2.3-6.8c1.6-1.6,3.6-2.5,6-2.5c1.6,0,3.1,0.4,4.4,1.2c1.3,0.8,2.3,1.8,3,3.2
	c0.7,1.4,1,2.9,1,4.7c0,1.8-0.4,3.4-1.1,4.8c-0.7,1.4-1.7,2.5-3,3.2c-1.3,0.7-2.7,1.1-4.2,1.1c-1.6,0-3.1-0.4-4.4-1.2
	c-1.3-0.8-2.3-1.9-2.9-3.3C273.3,93,273,91.5,273,90z M275.3,90c0,2.1,0.6,3.8,1.7,5c1.1,1.2,2.6,1.8,4.3,1.8c1.7,0,3.2-0.6,4.3-1.8
	c1.1-1.2,1.7-3,1.7-5.2c0-1.4-0.2-2.7-0.7-3.7c-0.5-1.1-1.2-1.9-2.1-2.5c-0.9-0.6-2-0.9-3.1-0.9c-1.6,0-3,0.6-4.2,1.7
	C275.9,85.5,275.3,87.4,275.3,90z"/>
<path class="st0" d="M303.9,98.5V81h7.7c1.6,0,2.7,0.2,3.5,0.5c0.8,0.3,1.5,0.9,1.9,1.7c0.5,0.8,0.7,1.7,0.7,2.6
	c0,1.2-0.4,2.3-1.2,3.1c-0.8,0.9-2,1.4-3.7,1.6c0.6,0.3,1.1,0.6,1.4,0.9c0.7,0.6,1.3,1.4,1.9,2.3l3,4.8h-2.9l-2.3-3.6
	c-0.7-1-1.2-1.8-1.7-2.4c-0.4-0.6-0.8-0.9-1.2-1.2c-0.3-0.2-0.7-0.4-1.1-0.5c-0.3-0.1-0.7-0.1-1.3-0.1h-2.7v7.8H303.9z M306.2,88.7
	h5c1.1,0,1.9-0.1,2.5-0.3c0.6-0.2,1-0.6,1.4-1c0.3-0.5,0.5-1,0.5-1.6c0-0.8-0.3-1.5-0.9-2c-0.6-0.5-1.5-0.8-2.8-0.8h-5.5V88.7z"/>
</svg>
