<?xml version="1.0" encoding="utf-8"?>
<!-- Generator: Adobe Illustrator 23.0.5, SVG Export Plug-In . SVG Version: 6.00 Build 0)  -->
<svg version="1.1" id="Layer_1" xmlns="http://www.w3.org/2000/svg" xmlns:xlink="http://www.w3.org/1999/xlink" x="0px" y="0px"
	 viewBox="0 0 80.9 104.6" style="enable-background:new 0 0 80.9 104.6;" xml:space="preserve">
<style type="text/css">
	.st0{fill:#1D1D1B;}
	.st1{fill:#D7361E;}
	.st2{fill:#244192;}
	.st3{fill:#FCCB14;}
</style>
<g>
	<g>
		<path class="st0" d="M81.3,55.5c-1.9,0.1-3.4,0.6-4.5,1.7c-1.2,1.1-1.9,2.5-2.3,4.3c-0.4,1.8-0.6,5.1-0.6,9.9
			c0,4.7-0.2,8.2-0.5,10.2c-0.3,2.1-1,3.8-2,5.2c-1,1.4-2.3,2.3-3.8,2.9c-1.1,0.4-2.8,0.6-5.1,0.6h-2v-6.2h1.1
			c2.3,0,3.8-0.4,4.6-1.1c0.8-0.7,1.3-2,1.5-3.8c0.1-1,0.1-4,0.1-9.2c0-5.7,0.6-9.8,1.8-12.2c1.2-2.5,3.1-4.3,5.8-5.6
			c-2.2-1.2-3.9-2.5-4.9-4.1c-1-1.5-1.8-3.7-2.2-6.5c-0.3-1.8-0.4-6.2-0.4-13.1c0-3.4-0.4-5.6-1.2-6.6c-0.8-1-2.5-1.5-5-1.5h-1.1
			v-6.2h2c2.1,0,3.6,0.1,4.5,0.4c1.4,0.4,2.5,1,3.3,1.8c0.9,0.8,1.6,1.9,2.2,3.2c0.6,1.3,1,3.1,1.2,5.3c0.1,1.4,0.2,4.3,0.2,8.7
			c0,4.4,0.2,7.5,0.6,9.3c0.4,1.8,1.2,3.3,2.3,4.3c1.2,1,2.7,1.6,4.5,1.6V55.5z"/>
	</g>
	<g>
		<path class="st0" d="M-0.4,49c1.9-0.1,3.4-0.6,4.5-1.6c1.2-1,1.9-2.5,2.3-4.3C6.8,41.2,7,38.1,7,33.7c0-4.4,0.1-7.3,0.2-8.7
			c0.2-2.2,0.6-4,1.2-5.3c0.6-1.3,1.3-2.4,2.2-3.2c0.9-0.8,2-1.4,3.3-1.8c0.9-0.3,2.4-0.4,4.5-0.4h2v6.2h-1.1c-2.5,0-4.2,0.5-5,1.5
			c-0.8,1-1.2,3.2-1.2,6.6c0,6.9-0.1,11.3-0.4,13.1c-0.4,2.8-1.2,5-2.2,6.5c-1,1.5-2.7,2.9-4.9,4.1c2.7,1.2,4.6,3.1,5.8,5.6
			c1.2,2.5,1.8,6.6,1.8,12.2c0,5.1,0,8.2,0.1,9.2c0.2,1.8,0.7,3,1.5,3.8c0.8,0.7,2.3,1.1,4.6,1.1h1.1v6.2h-2c-2.4,0-4.1-0.2-5.1-0.6
			c-1.5-0.6-2.8-1.6-3.8-2.9c-1-1.4-1.7-3.1-2-5.2C7.2,79.4,7.1,76,7,71.3c0-4.7-0.2-8-0.6-9.9c-0.4-1.8-1.2-3.3-2.3-4.3
			c-1.2-1.1-2.7-1.6-4.5-1.7V49z"/>
	</g>
	<path class="st1" d="M30.1,76.5c0-1.5,1.1-2.8,2.5-2.8h26.9c1.4,0,2.5,1.2,2.5,2.8l0,0c0,1.5-1.1,2.8-2.5,2.8H32.6
		C31.2,79.2,30.1,78,30.1,76.5L30.1,76.5z"/>
	<path class="st1" d="M45.2,64.4c0-1.5,1.1-2.7,2.4-2.7h11.8c1.3,0,2.4,1.2,2.4,2.7l0,0c0,1.5-1.1,2.7-2.4,2.7H47.6
		C46.3,67.1,45.2,65.9,45.2,64.4L45.2,64.4z"/>
	<path class="st2" d="M18.5,64.4c0-1.5,1.1-2.7,2.4-2.7h18.4c1.3,0,2.4,1.2,2.4,2.7l0,0c0,1.5-1.1,2.7-2.4,2.7H20.9
		C19.6,67.1,18.5,65.9,18.5,64.4L18.5,64.4z"/>
	<path class="st2" d="M18.5,52.5c0-1.5,1.1-2.8,2.5-2.8h38.4c1.4,0,2.5,1.2,2.5,2.8l0,0c0,1.5-1.1,2.8-2.5,2.8H21
		C19.6,55.3,18.5,54.1,18.5,52.5L18.5,52.5z"/>
	<path class="st3" d="M33.7,40.7c0-1.6,1.2-2.8,2.6-2.8h23.1c1.4,0,2.6,1.3,2.6,2.8l0,0c0,1.6-1.2,2.8-2.6,2.8H36.3
		C34.9,43.5,33.7,42.2,33.7,40.7L33.7,40.7z"/>
	<path class="st3" d="M18.5,40.7c0-1.6,1.2-2.8,2.6-2.8h6.4c1.4,0,2.6,1.3,2.6,2.8l0,0c0,1.6-1.2,2.8-2.6,2.8h-6.4
		C19.6,43.5,18.5,42.2,18.5,40.7L18.5,40.7z"/>
	<path class="st3" d="M18.5,28.7c0-1.7,1.2-3,2.7-3h37.9c1.5,0,2.7,1.3,2.7,3l0,0c0,1.7-1.2,3-2.7,3H21.2
		C19.7,31.7,18.5,30.3,18.5,28.7L18.5,28.7z"/>
</g>
</svg>
