<?xml version="1.0" encoding="utf-8"?>
<!-- Generator: Adobe Illustrator 23.0.5, SVG Export Plug-In . SVG Version: 6.00 Build 0)  -->
<svg version="1.1" id="Layer_1" xmlns="http://www.w3.org/2000/svg" xmlns:xlink="http://www.w3.org/1999/xlink" x="0px" y="0px"
	 viewBox="0 0 327.9 104.6" style="enable-background:new 0 0 327.9 104.6;" xml:space="preserve">
<style type="text/css">
	.st0{fill:#FFFFFF;}
	.st1{fill:#D7361E;}
	.st2{fill:#244192;}
	.st3{fill:#FCCB14;}
</style>
<g>
	<g>
		<path class="st0" d="M105.9,58.6c-2.3,0.1-4.1,0.7-5.5,2c-1.4,1.3-2.4,3-2.8,5.3c-0.5,2.2-0.7,6.2-0.8,12c0,5.8-0.2,10-0.6,12.5
			c-0.4,2.5-1.2,4.6-2.4,6.3c-1.2,1.7-2.8,2.9-4.7,3.6c-1.3,0.5-3.4,0.8-6.3,0.8h-2.5v-7.6h1.4c2.8,0,4.7-0.4,5.6-1.3
			c1-0.9,1.6-2.4,1.8-4.6c0.1-1.2,0.2-4.9,0.2-11.2c0-6.9,0.7-11.9,2.2-15c1.5-3,3.8-5.3,7-6.8c-2.7-1.4-4.7-3.1-6-5
			c-1.3-1.9-2.2-4.5-2.7-8c-0.3-2.2-0.5-7.6-0.5-16c0-4.2-0.5-6.9-1.5-8.1c-1-1.2-3-1.8-6.1-1.8h-1.4V8.3h2.5c2.5,0,4.4,0.2,5.5,0.5
			c1.6,0.5,3,1.3,4.1,2.2c1.1,1,1.9,2.3,2.7,3.9c0.7,1.6,1.2,3.8,1.5,6.5c0.1,1.7,0.2,5.3,0.3,10.6c0,5.4,0.3,9.2,0.8,11.4
			c0.5,2.2,1.4,4,2.8,5.2c1.4,1.3,3.3,1.9,5.5,2V58.6z"/>
	</g>
	<g>
		<path class="st0" d="M6,50.7c2.3-0.1,4.1-0.7,5.5-2c1.4-1.3,2.4-3,2.8-5.2c0.5-2.2,0.7-6,0.8-11.4c0-5.4,0.1-8.9,0.3-10.6
			c0.3-2.7,0.8-4.9,1.5-6.5c0.7-1.6,1.6-3,2.7-3.9c1.1-1,2.4-1.7,4.1-2.2c1.1-0.3,2.9-0.5,5.5-0.5h2.5v7.6h-1.4
			c-3.1,0-5.1,0.6-6.1,1.8c-1,1.2-1.5,3.9-1.5,8.1c0,8.4-0.2,13.8-0.5,16c-0.5,3.4-1.4,6.1-2.7,8c-1.3,1.9-3.3,3.5-6,5
			c3.2,1.5,5.6,3.7,7,6.8c1.5,3,2.2,8,2.2,15c0,6.3,0.1,10,0.2,11.2c0.2,2.2,0.8,3.7,1.8,4.6c1,0.9,2.8,1.3,5.6,1.3h1.4v7.6h-2.5
			c-2.9,0-5-0.3-6.3-0.8c-1.9-0.7-3.4-1.9-4.7-3.6c-1.2-1.7-2-3.8-2.4-6.3c-0.4-2.5-0.6-6.7-0.6-12.5c0-5.8-0.3-9.8-0.8-12
			c-0.5-2.2-1.4-4-2.8-5.3c-1.4-1.3-3.3-2-5.5-2V50.7z"/>
	</g>
	<path class="st1" d="M43.3,84.3c0-1.9,1.4-3.4,3.1-3.4h32.9c1.7,0,3.1,1.5,3.1,3.4l0,0c0,1.9-1.4,3.4-3.1,3.4H46.3
		C44.6,87.7,43.3,86.1,43.3,84.3L43.3,84.3z"/>
	<path class="st1" d="M61.7,69.6c0-1.8,1.3-3.2,3-3.2h14.4c1.6,0,3,1.5,3,3.2l0,0c0,1.8-1.3,3.2-3,3.2H64.7
		C63,72.8,61.7,71.3,61.7,69.6L61.7,69.6z"/>
	<path class="st2" d="M29.1,69.6c0-1.8,1.3-3.2,3-3.2h22.5c1.6,0,3,1.5,3,3.2l0,0c0,1.8-1.3,3.2-3,3.2H32
		C30.4,72.8,29.1,71.3,29.1,69.6L29.1,69.6z"/>
	<path class="st2" d="M29.1,55.1c0-1.9,1.4-3.4,3.1-3.4H79c1.7,0,3.1,1.5,3.1,3.4l0,0c0,1.9-1.4,3.4-3.1,3.4H32.1
		C30.4,58.4,29.1,56.9,29.1,55.1L29.1,55.1z"/>
	<path class="st3" d="M47.7,40.6c0-1.9,1.4-3.5,3.2-3.5h28.2c1.8,0,3.2,1.6,3.2,3.5l0,0c0,1.9-1.4,3.5-3.2,3.5H50.9
		C49.1,44,47.7,42.5,47.7,40.6L47.7,40.6z"/>
	<path class="st3" d="M29.1,40.6c0-1.9,1.4-3.5,3.2-3.5h7.8c1.8,0,3.2,1.6,3.2,3.5l0,0c0,1.9-1.4,3.5-3.2,3.5h-7.8
		C30.5,44,29.1,42.5,29.1,40.6L29.1,40.6z"/>
	<path class="st3" d="M29.1,25.9c0-2,1.5-3.7,3.4-3.7h46.3c1.9,0,3.4,1.6,3.4,3.7l0,0c0,2-1.5,3.7-3.4,3.7H32.4
		C30.6,29.6,29.1,27.9,29.1,25.9L29.1,25.9z"/>
	<path class="st0" d="M161.5,27.8v-0.2c0-1,0.3-1.7,0.8-2.1c0.5-0.5,1.4-0.7,2.5-0.7c1.2,0,2,0.3,2.4,1c0.4,0.7,0.7,2.1,0.7,4.3v8.1
		c0,1.1-0.3,1.9-0.8,2.4c-0.5,0.5-1.3,0.8-2.4,0.8c-0.8,0-1.4-0.2-2-0.7c-0.6-0.4-1.2-1.4-2-2.8c-1.4-2.4-3-4.1-4.9-5.3
		c-1.9-1.2-4.2-1.8-6.7-1.8c-4.4,0-8,1.3-10.7,4c-2.8,2.7-4.1,6.1-4.1,10.4c0,4.3,1.3,7.9,4,10.6c2.6,2.7,6,4.1,10.2,4.1
		c1.9,0,3.7-0.3,5.4-0.8c1.7-0.5,3.3-1.3,4.8-2.4c0.5-0.3,1.3-0.9,2.2-1.6c1.8-1.5,3.3-2.3,4.3-2.3c0.9,0,1.6,0.3,2.1,0.9
		c0.6,0.6,0.8,1.3,0.8,2.2c0,2.3-2.1,4.6-6.3,7c-4.2,2.4-8.7,3.6-13.4,3.6c-6.1,0-11.2-2-15.3-6.1c-4.1-4-6.1-9.1-6.1-15.1
		s2-11.1,6.1-15.1c4.1-4.1,9.1-6.1,15.2-6.1c2.1,0,4.3,0.3,6.5,0.9C156.8,25.6,159,26.5,161.5,27.8z"/>
	<path class="st0" d="M219.5,45.3c0,6.2-2.1,11.3-6.2,15.2c-4.1,3.9-9.5,5.9-16,5.9c-6.5,0-11.9-2-16-5.9c-4.1-3.9-6.2-9-6.2-15.2
		c0-6.2,2.1-11.3,6.2-15.2c4.1-3.9,9.5-5.9,16-5.9c6.5,0,11.9,2,16,5.9C217.4,34.1,219.5,39.1,219.5,45.3z M197.3,60.4
		c4.3,0,7.9-1.4,10.7-4.2c2.8-2.8,4.2-6.4,4.2-10.8c0-4.4-1.4-8-4.2-10.9c-2.8-2.9-6.3-4.3-10.7-4.3c-4.3,0-7.9,1.4-10.6,4.3
		c-2.8,2.9-4.2,6.5-4.2,10.9c0,4.4,1.4,8,4.1,10.8C189.4,59,192.9,60.4,197.3,60.4z"/>
	<path class="st0" d="M258.6,65.4c-0.6,0-1-0.2-1.2-0.5c-0.2-0.3-0.4-0.9-0.4-1.8v-3.6c-1.7,2.2-3.8,3.9-6.3,5.1
		c-2.5,1.2-5.3,1.8-8.3,1.8c-5.3,0-9.8-2-13.4-5.9c-3.6-3.9-5.4-8.8-5.4-14.6c0-6,1.9-11,5.8-15c3.8-4,8.6-6,14.3-6
		c2.9,0,5.5,0.5,7.8,1.6c2.3,1.1,4.3,2.6,6,4.7V14.7h-2.2c-2.5,0-4-0.2-4.8-0.7c-0.7-0.4-1.1-1.3-1.1-2.5c0-1,0.3-1.8,0.9-2.4
		c0.6-0.5,1.4-0.8,2.5-0.8h8.7c0.8,0,1.5,0.1,1.8,0.4c0.4,0.3,0.6,0.7,0.6,1.4v49.1h1.9c1.4,0,2.4,0.2,3,0.7
		c0.6,0.5,0.9,1.2,0.9,2.3c0,1-0.3,1.8-0.8,2.3c-0.5,0.6-1.3,0.8-2.2,0.8H258.6z M230.9,45.9c0,4,1.3,7.3,3.8,9.8
		c2.5,2.6,5.7,3.8,9.6,3.8c3.9,0,7.1-1.3,9.6-4c2.5-2.7,3.8-6,3.8-10.1c0-4-1.2-7.4-3.7-10c-2.5-2.6-5.7-3.9-9.6-3.9
		c-4,0-7.2,1.3-9.7,4C232.1,38.1,230.9,41.6,230.9,45.9z"/>
	<path class="st0" d="M280.1,47.2c0.2,4.2,1.6,7.4,4.1,9.7c2.5,2.3,6,3.4,10.3,3.4c3.3,0,6.9-0.9,10.8-2.7c3.9-1.8,6.2-2.7,7.1-2.7
		c0.8,0,1.6,0.3,2.1,0.8c0.6,0.6,0.8,1.2,0.8,2c0,0.8-0.3,1.6-0.9,2.3c-0.6,0.7-1.5,1.4-2.8,2c-2.8,1.4-5.7,2.5-8.7,3.2
		c-3,0.7-6,1.1-9,1.1c-6.4,0-11.6-1.9-15.5-5.7c-3.9-3.8-5.8-8.9-5.8-15.2c0-6.4,2-11.6,6.1-15.6c4.1-4,9.4-6,16-6
		c6,0,10.9,1.9,14.8,5.6c3.9,3.7,5.9,8.2,5.9,13.5c0,1.6-0.3,2.7-1,3.3c-0.7,0.6-2.5,0.8-5.4,0.8h-0.6H280.1z M280.3,41.5h27.6
		c-0.4-3.5-1.8-6.2-4.2-8.3c-2.4-2.1-5.3-3.2-8.8-3.2c-3.8,0-6.9,1-9.5,3C282.8,35.1,281.1,37.9,280.3,41.5z"/>
	<path class="st0" d="M129.5,100.7V83.2h12.6v2.1h-10.3v5.3h9.7v2h-9.7v5.9h10.7v2.1H129.5z"/>
	<path class="st0" d="M169.4,94.6l2.3,0.6c-0.5,1.9-1.4,3.3-2.6,4.3c-1.3,1-2.8,1.5-4.6,1.5c-1.9,0-3.4-0.4-4.6-1.1
		c-1.2-0.8-2.1-1.9-2.7-3.3c-0.6-1.5-0.9-3-0.9-4.7c0-1.8,0.3-3.4,1-4.8c0.7-1.4,1.7-2.4,3-3.1c1.3-0.7,2.7-1.1,4.2-1.1
		c1.7,0,3.2,0.4,4.4,1.3c1.2,0.9,2,2.1,2.5,3.8l-2.3,0.5c-0.4-1.3-1-2.2-1.8-2.8c-0.8-0.6-1.7-0.9-2.9-0.9c-1.3,0-2.5,0.3-3.4,1
		c-0.9,0.6-1.5,1.5-1.9,2.6c-0.4,1.1-0.5,2.2-0.5,3.4c0,1.5,0.2,2.8,0.6,3.9c0.4,1.1,1.1,1.9,2,2.5c0.9,0.5,1.9,0.8,3,0.8
		c1.3,0,2.4-0.4,3.3-1.1C168.4,97.1,169,96,169.4,94.6z"/>
	<path class="st0" d="M197.2,83.2h2.3v10.1c0,1.8-0.2,3.1-0.6,4.2c-0.4,1-1.1,1.9-2.1,2.5c-1,0.6-2.4,1-4.1,1c-1.6,0-3-0.3-4-0.8
		c-1-0.6-1.8-1.4-2.2-2.4c-0.4-1.1-0.7-2.5-0.7-4.4V83.2h2.3v10.1c0,1.5,0.1,2.6,0.4,3.4c0.3,0.7,0.8,1.3,1.5,1.7s1.5,0.6,2.5,0.6
		c1.7,0,2.9-0.4,3.6-1.2c0.7-0.8,1.1-2.3,1.1-4.4V83.2z"/>
	<path class="st0" d="M212.7,100.7l6.7-17.5h2.5l7.1,17.5h-2.6l-2-5.3H217l-1.9,5.3H212.7z M217.7,93.5h5.9l-1.8-4.8
		c-0.6-1.5-1-2.7-1.2-3.6c-0.2,1.1-0.5,2.2-0.9,3.3L217.7,93.5z"/>
	<path class="st0" d="M242.1,100.7V83.2h6c1.4,0,2.4,0.1,3.1,0.3c1,0.2,1.9,0.6,2.6,1.2c0.9,0.8,1.6,1.8,2.1,3
		c0.5,1.2,0.7,2.6,0.7,4.2c0,1.3-0.2,2.5-0.5,3.5c-0.3,1-0.7,1.9-1.2,2.5c-0.5,0.7-1,1.2-1.6,1.6c-0.6,0.4-1.3,0.7-2.1,0.9
		c-0.8,0.2-1.7,0.3-2.8,0.3H242.1z M244.4,98.6h3.7c1.2,0,2.1-0.1,2.7-0.3c0.7-0.2,1.2-0.5,1.6-0.9c0.5-0.5,1-1.3,1.3-2.2
		c0.3-0.9,0.5-2,0.5-3.4c0-1.8-0.3-3.2-0.9-4.2c-0.6-1-1.3-1.6-2.2-2c-0.6-0.2-1.6-0.4-3-0.4h-3.7V98.6z"/>
	<path class="st0" d="M270.2,92.2c0-2.9,0.8-5.2,2.3-6.8c1.6-1.6,3.6-2.5,6-2.5c1.6,0,3.1,0.4,4.4,1.2c1.3,0.8,2.3,1.8,3,3.2
		c0.7,1.4,1,2.9,1,4.7c0,1.8-0.4,3.4-1.1,4.8c-0.7,1.4-1.7,2.5-3,3.2c-1.3,0.7-2.7,1.1-4.2,1.1c-1.6,0-3.1-0.4-4.4-1.2
		c-1.3-0.8-2.3-1.9-2.9-3.3C270.5,95.2,270.2,93.7,270.2,92.2z M272.6,92.2c0,2.1,0.6,3.8,1.7,5c1.1,1.2,2.6,1.8,4.3,1.8
		c1.7,0,3.2-0.6,4.3-1.8c1.1-1.2,1.7-3,1.7-5.2c0-1.4-0.2-2.7-0.7-3.7c-0.5-1.1-1.2-1.9-2.1-2.5c-0.9-0.6-2-0.9-3.1-0.9
		c-1.6,0-3,0.6-4.2,1.7C273.1,87.7,272.6,89.6,272.6,92.2z"/>
	<path class="st0" d="M301.1,100.7V83.2h7.7c1.6,0,2.7,0.2,3.5,0.5c0.8,0.3,1.5,0.9,1.9,1.7c0.5,0.8,0.7,1.7,0.7,2.6
		c0,1.2-0.4,2.3-1.2,3.1c-0.8,0.9-2,1.4-3.7,1.6c0.6,0.3,1.1,0.6,1.4,0.9c0.7,0.6,1.3,1.4,1.9,2.3l3,4.8h-2.9l-2.3-3.6
		c-0.7-1-1.2-1.8-1.7-2.4c-0.4-0.6-0.8-0.9-1.2-1.2c-0.3-0.2-0.7-0.4-1.1-0.5c-0.3-0.1-0.7-0.1-1.3-0.1h-2.7v7.8H301.1z M303.4,90.9
		h5c1.1,0,1.9-0.1,2.5-0.3c0.6-0.2,1-0.6,1.4-1c0.3-0.5,0.5-1,0.5-1.6c0-0.8-0.3-1.5-0.9-2c-0.6-0.5-1.5-0.8-2.8-0.8h-5.5V90.9z"/>
</g>
</svg>
